<?xml version="1.0" encoding="UTF-8"?>
<svg width="250px" height="204px" viewBox="0 0 250 204" version="1.1" xmlns="http://www.w3.org/2000/svg" xmlns:xlink="http://www.w3.org/1999/xlink">
    <!-- Generator: Sketch 53 (72520) - https://sketchapp.com -->
    <title>Path</title>
    <desc>Created with Sketch.</desc>
    <g id="Page-1" stroke="none" stroke-width="1" fill="none" fill-rule="evenodd">
        <g id="Twitter_Logo_WhiteOnImage" transform="translate(-75.000000, -98.000000)" fill="#FFFFFF" fill-rule="nonzero">
            <g id="Logo__x2014__FIXED" transform="translate(75.000000, 98.000000)">
                <path d="M78.6,203.6 C172.9,203.6 224.5,125.4 224.5,57.7 C224.5,55.5 224.5,53.3 224.4,51.1 C234.4,43.9 243.1,34.8 250,24.5 C240.8,28.6 230.9,31.3 220.5,32.6 C231.1,26.3 239.2,16.2 243.1,4.2 C233.2,10.1 222.2,14.3 210.5,16.6 C201.1,6.6 187.8,0.4 173.1,0.4 C144.8,0.4 121.8,23.4 121.8,51.7 C121.8,55.7 122.3,59.6 123.1,63.4 C80.5,61.3 42.7,40.8 17.4,9.8 C13,17.4 10.5,26.2 10.5,35.6 C10.5,53.4 19.6,69.1 33.3,78.3 C24.9,78 17,75.7 10.1,71.9 C10.1,72.1 10.1,72.3 10.1,72.6 C10.1,97.4 27.8,118.2 51.2,122.9 C46.9,124.1 42.4,124.7 37.7,124.7 C34.4,124.7 31.2,124.4 28.1,123.8 C34.6,144.2 53.6,159 76,159.4 C58.4,173.2 36.3,181.4 12.3,181.4 C8.2,181.4 4.1,181.2 0.1,180.7 C22.7,195.1 49.7,203.6 78.6,203.6" id="Path"></path>
            </g>
        </g>
    </g>
</svg>